# xmcd
#
# Track frame offsets:
#	150
#	17877
#	32729
#	50331
#	63781
#	80879
#	90815
#	105768
#	122674
#	135838
#	148095
#	161304
#	176985
#
# Disc length: 2511 seconds
#
# Revision: 10
# Processed by: cddbd v1.5.2PL0 Copyright (c) Steve Scherf et al.
# Submitted via: EasyCDDAExtractor 15.3.0.1
#
DISCID=9b09cd0d
DTITLE=Alejandro Fernandez - Mi Verdad
DYEAR=1999
DGENRE=Latin
TTITLE0=La Lluvia Sigue Cayendo
TTITLE1=Loco
TTITLE2=Si He Sabido Amor
TTITLE3=Avisame
TTITLE4=Hoy Que Estas Ausente
TTITLE5=Mi Verdad
TTITLE6=Mentirosos
TTITLE7=Nadie Simplemente Nadie
TTITLE8=A Una Señora
TTITLE9=Por Que
TTITLE10=Esta Noche
TTITLE11=Amante Torero
TTITLE12=Asi Como Soy, Yo Soy
EXTD=
EXTT0=
EXTT1=
EXTT2=
EXTT3=
EXTT4=
EXTT5=
EXTT6=
EXTT7=
EXTT8=
EXTT9=
EXTT10=
EXTT11=
EXTT12=
PLAYORDER=
